<mxfile host="app.diagrams.net" modified="2023-01-05T09:37:40.489Z" agent="5.0 (Windows NT 10.0; Win64; x64) AppleWebKit/537.36 (KHTML, like Gecko) Chrome/103.0.0.0 Safari/537.36" version="20.8.1" etag="2gKyB362VfEnCW42CHC2" type="github">
  <diagram id="YDgZj-mUYJTDMItNJuJD" name="Page-1">
    <mxGraphModel dx="1434" dy="764" grid="1" gridSize="10" guides="1" tooltips="1" connect="1" arrows="1" fold="1" page="1" pageScale="1" pageWidth="827" pageHeight="1169" math="0" shadow="0">
      <root>
        <mxCell id="0" />
        <mxCell id="1" parent="0" />
        <mxCell id="sfSj9FIQ0X0grIQInOlU-1" value="compte épargne" style="swimlane;fontStyle=1;align=center;verticalAlign=top;childLayout=stackLayout;horizontal=1;startSize=26;horizontalStack=0;resizeParent=1;resizeParentMax=0;resizeLast=0;collapsible=1;marginBottom=0;" vertex="1" parent="1">
          <mxGeometry x="600" y="180" width="160" height="124" as="geometry" />
        </mxCell>
        <mxCell id="sfSj9FIQ0X0grIQInOlU-3" value="" style="line;strokeWidth=1;fillColor=none;align=left;verticalAlign=middle;spacingTop=-1;spacingLeft=3;spacingRight=3;rotatable=0;labelPosition=right;points=[];portConstraint=eastwest;strokeColor=inherit;" vertex="1" parent="sfSj9FIQ0X0grIQInOlU-1">
          <mxGeometry y="26" width="160" height="8" as="geometry" />
        </mxCell>
        <mxCell id="sfSj9FIQ0X0grIQInOlU-4" value="+ remunerer(): void&#xa;+ compteEpargne(float s)&#xa;" style="text;strokeColor=none;fillColor=none;align=left;verticalAlign=top;spacingLeft=4;spacingRight=4;overflow=hidden;rotatable=0;points=[[0,0.5],[1,0.5]];portConstraint=eastwest;" vertex="1" parent="sfSj9FIQ0X0grIQInOlU-1">
          <mxGeometry y="34" width="160" height="90" as="geometry" />
        </mxCell>
        <mxCell id="sfSj9FIQ0X0grIQInOlU-5" value="compte courant" style="swimlane;fontStyle=1;align=center;verticalAlign=top;childLayout=stackLayout;horizontal=1;startSize=26;horizontalStack=0;resizeParent=1;resizeParentMax=0;resizeLast=0;collapsible=1;marginBottom=0;" vertex="1" parent="1">
          <mxGeometry x="600" y="350" width="160" height="94" as="geometry" />
        </mxCell>
        <mxCell id="sfSj9FIQ0X0grIQInOlU-7" value="" style="line;strokeWidth=1;fillColor=none;align=left;verticalAlign=middle;spacingTop=-1;spacingLeft=3;spacingRight=3;rotatable=0;labelPosition=right;points=[];portConstraint=eastwest;strokeColor=inherit;" vertex="1" parent="sfSj9FIQ0X0grIQInOlU-5">
          <mxGeometry y="26" width="160" height="8" as="geometry" />
        </mxCell>
        <mxCell id="sfSj9FIQ0X0grIQInOlU-8" value="+ retrait(float s): void&#xa;+ compteCourant(float s)&#xa;" style="text;strokeColor=none;fillColor=none;align=left;verticalAlign=top;spacingLeft=4;spacingRight=4;overflow=hidden;rotatable=0;points=[[0,0.5],[1,0.5]];portConstraint=eastwest;" vertex="1" parent="sfSj9FIQ0X0grIQInOlU-5">
          <mxGeometry y="34" width="160" height="60" as="geometry" />
        </mxCell>
        <mxCell id="sfSj9FIQ0X0grIQInOlU-9" value="Dossier bancaire" style="swimlane;fontStyle=1;align=center;verticalAlign=top;childLayout=stackLayout;horizontal=1;startSize=26;horizontalStack=0;resizeParent=1;resizeParentMax=0;resizeLast=0;collapsible=1;marginBottom=0;" vertex="1" parent="1">
          <mxGeometry x="310" y="266" width="160" height="134" as="geometry" />
        </mxCell>
        <mxCell id="sfSj9FIQ0X0grIQInOlU-11" value="" style="line;strokeWidth=1;fillColor=none;align=left;verticalAlign=middle;spacingTop=-1;spacingLeft=3;spacingRight=3;rotatable=0;labelPosition=right;points=[];portConstraint=eastwest;strokeColor=inherit;" vertex="1" parent="sfSj9FIQ0X0grIQInOlU-9">
          <mxGeometry y="26" width="160" height="8" as="geometry" />
        </mxCell>
        <mxCell id="sfSj9FIQ0X0grIQInOlU-12" value="+ getSoldeTotal(): float&#xa;+ Depot(float somme): void&#xa;+ DossierBancaire(): &#xa;&#xa;+ Remunerer(): void&#xa;+ Retrait(float value): void&#xa;&#xa;" style="text;strokeColor=none;fillColor=none;align=left;verticalAlign=top;spacingLeft=4;spacingRight=4;overflow=hidden;rotatable=0;points=[[0,0.5],[1,0.5]];portConstraint=eastwest;" vertex="1" parent="sfSj9FIQ0X0grIQInOlU-9">
          <mxGeometry y="34" width="160" height="100" as="geometry" />
        </mxCell>
        <mxCell id="sfSj9FIQ0X0grIQInOlU-23" value="1" style="endArrow=open;html=1;endSize=12;startArrow=diamondThin;startSize=14;startFill=0;edgeStyle=orthogonalEdgeStyle;align=left;verticalAlign=bottom;rounded=0;entryX=-0.014;entryY=0.544;entryDx=0;entryDy=0;entryPerimeter=0;" edge="1" parent="1">
          <mxGeometry x="-1" y="3" relative="1" as="geometry">
            <mxPoint x="470" y="300.47" as="sourcePoint" />
            <mxPoint x="597.76" y="220.1439999999999" as="targetPoint" />
            <Array as="points">
              <mxPoint x="530" y="300" />
              <mxPoint x="530" y="220" />
              <mxPoint x="570" y="220" />
            </Array>
          </mxGeometry>
        </mxCell>
        <mxCell id="sfSj9FIQ0X0grIQInOlU-24" value="1" style="endArrow=open;html=1;endSize=12;startArrow=diamondThin;startSize=14;startFill=0;edgeStyle=orthogonalEdgeStyle;align=left;verticalAlign=bottom;rounded=0;entryX=-0.006;entryY=0.893;entryDx=0;entryDy=0;entryPerimeter=0;" edge="1" parent="1">
          <mxGeometry x="-1" y="3" relative="1" as="geometry">
            <mxPoint x="470" y="340" as="sourcePoint" />
            <mxPoint x="599.04" y="399.21799999999996" as="targetPoint" />
            <Array as="points">
              <mxPoint x="530" y="340" />
              <mxPoint x="530" y="399" />
            </Array>
          </mxGeometry>
        </mxCell>
        <mxCell id="sfSj9FIQ0X0grIQInOlU-28" value="" style="endArrow=block;dashed=1;endFill=0;endSize=12;html=1;rounded=0;" edge="1" parent="1">
          <mxGeometry width="160" relative="1" as="geometry">
            <mxPoint x="760" y="260" as="sourcePoint" />
            <mxPoint x="610" y="690" as="targetPoint" />
            <Array as="points">
              <mxPoint x="810" y="260" />
              <mxPoint x="810" y="480" />
              <mxPoint x="810" y="690" />
            </Array>
          </mxGeometry>
        </mxCell>
        <mxCell id="sfSj9FIQ0X0grIQInOlU-31" value="" style="endArrow=block;dashed=1;endFill=0;endSize=12;html=1;rounded=0;exitX=0.657;exitY=1.041;exitDx=0;exitDy=0;exitPerimeter=0;" edge="1" parent="1" source="sfSj9FIQ0X0grIQInOlU-8">
          <mxGeometry width="160" relative="1" as="geometry">
            <mxPoint x="430" y="520" as="sourcePoint" />
            <mxPoint x="610" y="640" as="targetPoint" />
            <Array as="points">
              <mxPoint x="705" y="640" />
            </Array>
          </mxGeometry>
        </mxCell>
        <mxCell id="sfSj9FIQ0X0grIQInOlU-32" value="compte " style="swimlane;fontStyle=1;align=center;verticalAlign=top;childLayout=stackLayout;horizontal=1;startSize=26;horizontalStack=0;resizeParent=1;resizeParentMax=0;resizeLast=0;collapsible=1;marginBottom=0;" vertex="1" parent="1">
          <mxGeometry x="450" y="610" width="160" height="190" as="geometry" />
        </mxCell>
        <mxCell id="sfSj9FIQ0X0grIQInOlU-37" value="- solde : float&#xa;" style="text;strokeColor=none;fillColor=none;align=left;verticalAlign=top;spacingLeft=4;spacingRight=4;overflow=hidden;rotatable=0;points=[[0,0.5],[1,0.5]];portConstraint=eastwest;" vertex="1" parent="sfSj9FIQ0X0grIQInOlU-32">
          <mxGeometry y="26" width="160" height="24" as="geometry" />
        </mxCell>
        <mxCell id="sfSj9FIQ0X0grIQInOlU-33" value="" style="line;strokeWidth=1;fillColor=none;align=left;verticalAlign=middle;spacingTop=-1;spacingLeft=3;spacingRight=3;rotatable=0;labelPosition=right;points=[];portConstraint=eastwest;strokeColor=inherit;" vertex="1" parent="sfSj9FIQ0X0grIQInOlU-32">
          <mxGeometry y="50" width="160" height="44" as="geometry" />
        </mxCell>
        <mxCell id="sfSj9FIQ0X0grIQInOlU-34" value="+ GetSolde(): float&#xa;+ AddSolde(float s) : void&#xa;+ Compte(float s)&#xa;+ SetSolde(float s) : void&#xa;" style="text;strokeColor=none;fillColor=none;align=left;verticalAlign=top;spacingLeft=4;spacingRight=4;overflow=hidden;rotatable=0;points=[[0,0.5],[1,0.5]];portConstraint=eastwest;" vertex="1" parent="sfSj9FIQ0X0grIQInOlU-32">
          <mxGeometry y="94" width="160" height="96" as="geometry" />
        </mxCell>
      </root>
    </mxGraphModel>
  </diagram>
</mxfile>
